<svg xmlns="http://www.w3.org/2000/svg" viewBox="0 0 860 436" width="860" height="436" font-family="-apple-system,Segoe UI,Helvetica,Arial,sans-serif"><rect width="860" height="436" fill="#14161a"/><text x="24" y="34" font-size="19" font-weight="700" fill="#f2efe9">Same weights, five serving hosts: terminal-bench, 3 trials</text><text x="24" y="56" font-size="12.5" fill="#9a948a">DeepSeek-V4-Flash, 14 agentic tasks x 3 trials per host, container-verified, temperature pinned</text><line x1="190" y1="78" x2="190" y2="368" stroke="#2a2d33"/><text x="190" y="386" font-size="10" fill="#9a948a" text-anchor="middle">0%</text><line x1="320" y1="78" x2="320" y2="368" stroke="#2a2d33"/><text x="320" y="386" font-size="10" fill="#9a948a" text-anchor="middle">25%</text><line x1="450" y1="78" x2="450" y2="368" stroke="#2a2d33"/><text x="450" y="386" font-size="10" fill="#9a948a" text-anchor="middle">50%</text><line x1="580" y1="78" x2="580" y2="368" stroke="#2a2d33"/><text x="580" y="386" font-size="10" fill="#9a948a" text-anchor="middle">75%</text><line x1="710" y1="78" x2="710" y2="368" stroke="#2a2d33"/><text x="710" y="386" font-size="10" fill="#9a948a" text-anchor="middle">100%</text><text x="180" y="116" font-size="12.5" fill="#f2efe9" text-anchor="end">doubleword realtime</text><rect x="190" y="101" width="520" height="22" rx="3" fill="#22252b"/><rect x="190" y="101" width="285.0" height="22" rx="3" fill="#1740e6"/><line x1="398.0" y1="112" x2="548.8" y2="112" stroke="#f2efe9" stroke-opacity="0.42" stroke-width="1.5"/><line x1="398.0" y1="107" x2="398.0" y2="117" stroke="#f2efe9" stroke-opacity="0.42" stroke-width="1.5"/><line x1="548.8" y1="107" x2="548.8" y2="117" stroke="#f2efe9" stroke-opacity="0.42" stroke-width="1.5"/><text x="565" y="116" font-size="13" font-family="'Spline Sans Mono',ui-monospace,monospace" fill="#f2efe9">54.8%</text><text x="623" y="116" font-size="10.5" font-family="'Spline Sans Mono',ui-monospace,monospace" fill="#9a948a">23/42</text><text x="180" y="172" font-size="12.5" fill="#f2efe9" text-anchor="end">parasail (fp8)</text><rect x="190" y="157" width="520" height="22" rx="3" fill="#22252b"/><rect x="190" y="164" width="296.9" height="8" rx="2" fill="#7048e8" opacity="0.32"/><rect x="190" y="157" width="247.5" height="22" rx="3" fill="#7048e8"/><line x1="361.6" y1="168" x2="512.4" y2="168" stroke="#f2efe9" stroke-opacity="0.42" stroke-width="1.5"/><line x1="361.6" y1="163" x2="361.6" y2="173" stroke="#f2efe9" stroke-opacity="0.42" stroke-width="1.5"/><line x1="512.4" y1="163" x2="512.4" y2="173" stroke="#f2efe9" stroke-opacity="0.42" stroke-width="1.5"/><text x="528" y="172" font-size="13" font-family="'Spline Sans Mono',ui-monospace,monospace" fill="#f2efe9">47.6%</text><text x="586" y="172" font-size="10.5" font-family="'Spline Sans Mono',ui-monospace,monospace" fill="#9a948a">20/42</text><text x="180" y="228" font-size="12.5" fill="#f2efe9" text-anchor="end">deepinfra (fp4)</text><rect x="190" y="213" width="520" height="22" rx="3" fill="#22252b"/><rect x="190" y="220" width="260.0" height="8" rx="2" fill="#0d9373" opacity="0.32"/><rect x="190" y="213" width="247.5" height="22" rx="3" fill="#0d9373"/><line x1="361.6" y1="224" x2="512.4" y2="224" stroke="#f2efe9" stroke-opacity="0.42" stroke-width="1.5"/><line x1="361.6" y1="219" x2="361.6" y2="229" stroke="#f2efe9" stroke-opacity="0.42" stroke-width="1.5"/><line x1="512.4" y1="219" x2="512.4" y2="229" stroke="#f2efe9" stroke-opacity="0.42" stroke-width="1.5"/><text x="528" y="228" font-size="13" font-family="'Spline Sans Mono',ui-monospace,monospace" fill="#f2efe9">47.6%</text><text x="586" y="228" font-size="10.5" font-family="'Spline Sans Mono',ui-monospace,monospace" fill="#9a948a">20/42</text><text x="180" y="284" font-size="12.5" fill="#f2efe9" text-anchor="end">doubleword flex</text><rect x="190" y="269" width="520" height="22" rx="3" fill="#22252b"/><rect x="190" y="269" width="235.0" height="22" rx="3" fill="#0e93c0"/><line x1="351.2" y1="280" x2="502.0" y2="280" stroke="#f2efe9" stroke-opacity="0.42" stroke-width="1.5"/><line x1="351.2" y1="275" x2="351.2" y2="285" stroke="#f2efe9" stroke-opacity="0.42" stroke-width="1.5"/><line x1="502.0" y1="275" x2="502.0" y2="285" stroke="#f2efe9" stroke-opacity="0.42" stroke-width="1.5"/><text x="518" y="284" font-size="13" font-family="'Spline Sans Mono',ui-monospace,monospace" fill="#f2efe9">45.2%</text><text x="576" y="284" font-size="10.5" font-family="'Spline Sans Mono',ui-monospace,monospace" fill="#9a948a">19/42</text><text x="180" y="340" font-size="12.5" fill="#f2efe9" text-anchor="end">fireworks</text><rect x="190" y="325" width="520" height="22" rx="3" fill="#22252b"/><rect x="190" y="332" width="272.5" height="8" rx="2" fill="#e8590c" opacity="0.32"/><rect x="190" y="325" width="173.2" height="22" rx="3" fill="#e8590c"/><line x1="299.2" y1="336" x2="439.6" y2="336" stroke="#f2efe9" stroke-opacity="0.42" stroke-width="1.5"/><line x1="299.2" y1="331" x2="299.2" y2="341" stroke="#f2efe9" stroke-opacity="0.42" stroke-width="1.5"/><line x1="439.6" y1="331" x2="439.6" y2="341" stroke="#f2efe9" stroke-opacity="0.42" stroke-width="1.5"/><text x="456" y="340" font-size="13" font-family="'Spline Sans Mono',ui-monospace,monospace" fill="#f2efe9">33.3%</text><text x="514" y="340" font-size="10.5" font-family="'Spline Sans Mono',ui-monospace,monospace" fill="#9a948a">14/42</text><rect x="24" y="413" width="16" height="9" rx="2" fill="#9a948a"/><text x="46" y="421" font-size="10.5" fill="#9a948a">end-to-end</text><rect x="140" y="413" width="16" height="9" rx="2" fill="#9a948a" opacity="0.32"/><text x="162" y="421" font-size="10.5" fill="#9a948a">excl. provider kills</text><line x1="300" y1="418" x2="320" y2="418" stroke="#f2efe9" stroke-opacity="0.42" stroke-width="1.5"/><text x="326" y="421" font-size="10.5" fill="#9a948a">Wilson 95% CI</text></svg>